<svg xmlns="http://www.w3.org/2000/svg" style="display:none;">
  <symbol id="icon-shopping-cart" viewBox="0 0 24 24" fill="currentColor">
    <path d="M7 18c-1.1 0-1.99.9-1.99 2S5.9 22 7 22s2-.9 2-2-.9-2-2-2zM1 2v2h2l3.6 7.59-1.35 2.45c-.16.28-.25.61-.25.96 0 1.1.9 2 2 2h12v-2H7.42c-.14 0-.25-.11-.25-.25l.03-.12.9-1.63h7.45c.75 0 1.41-.41 1.75-1.03l3.58-6.49A1.003 1.003 0 0020 4H5.21l-.94-2H1zm16 16c-1.1 0-1.99.9-1.99 2s.89 2 1.99 2 2-.9 2-2-.9-2-2-2z"/>
  </symbol>
  <symbol id="icon-search" viewBox="0 0 24 24" fill="currentColor">
    <path d="M15.5 14h-.79l-.28-.27C15.41 12.59 16 11.11 16 9.5 16 5.91 13.09 3 9.5 3S3 5.91 3 9.5 5.91 16 9.5 16c1.61 0 3.09-.59 4.23-1.57l.27.28v.79l5 4.99L20.49 19l-4.99-5zm-6 0C7.01 14 5 11.99 5 9.5S7.01 5 9.5 5 14 7.01 14 9.5 11.99 14 9.5 14z"/>
  </symbol>
  <symbol id="icon-chevron-left" viewBox="0 0 24 24" fill="currentColor">
    <path d="M15.41 7.41L14 6l-6 6 6 6 1.41-1.41L10.83 12z"/>
  </symbol>
  <symbol id="icon-chevron-right" viewBox="0 0 24 24" fill="currentColor">
    <path d="M10 6L8.59 7.41 13.17 12l-4.58 4.59L10 18l6-6z"/>
  </symbol>
  <symbol id="icon-menu" viewBox="0 0 24 24" fill="currentColor">
    <path d="M3 18h18v-2H3v2zm0-5h18v-2H3v2zm0-7v2h18V6H3z"/>
  </symbol>
  <symbol id="icon-times" viewBox="0 0 24 24" fill="currentColor">
    <path d="M19 6.41L17.59 5 12 10.59 6.41 5 5 6.41 10.59 12 5 17.59 6.41 19 12 13.41 17.59 19 19 17.59 13.41 12z"/>
  </symbol>
  <symbol id="icon-phone" viewBox="0 0 24 24" fill="currentColor">
    <path d="M17.35 1.47L12 0 6.65 1.47C3.02 2.54 0.54 5.02 0.54 8.65v6.7c0 3.63 2.48 6.11 6.11 7.18l5.35 1.47 5.35-1.47c3.63-1.07 6.11-3.55 6.11-7.18v-6.7c0-3.63-2.48-6.11-6.11-7.18zm0 13.88c0 2.58-1.63 4.3-4.33 4.95l-3.02.82-3.02-.82c-2.7-.65-4.33-2.37-4.33-4.95v-6.7c0-2.58 1.63-4.3 4.33-4.95l3.02-.82 3.02.82c2.7.65 4.33 2.37 4.33 4.95v6.7z"/>
  </symbol>
  <symbol id="icon-envelope" viewBox="0 0 24 24" fill="currentColor">
    <path d="M20 4H4c-1.1 0-1.99.9-1.99 2L2 18c0 1.1.9 2 2 2h16c1.1 0 2-.9 2-2V6c0-1.1-.9-2-2-2zm0 4l-8 5-8-5V6l8 5 8-5v2z"/>
  </symbol>
  <symbol id="icon-map-marker" viewBox="0 0 24 24" fill="currentColor">
    <path d="M12 2C6.48 2 2 6.48 2 12s4.48 10 10 10 10-4.48 10-10S17.52 2 12 2zm0 18c-4.41 0-8-3.59-8-8s3.59-8 8-8 8 3.59 8 8-3.59 8-8 8zm3.5-9c0 1.93-1.57 3.5-3.5 3.5S8.5 12.93 8.5 11 10.07 7.5 12 7.5s3.5 1.57 3.5 3.5z"/>
  </symbol>
  <symbol id="icon-whatsapp" viewBox="0 0 24 24" fill="currentColor">
    <path d="M17.472 14.382c-.297-.149-1.758-.867-2.03-.967-.272-.099-.471-.148-.67.15-.198.297-.767.966-.94 1.164-.173.199-.347.223-.645.075-.297-.15-1.255-.463-2.39-1.475-.883-.788-1.48-1.761-1.653-2.059-.173-.297-.018-.458.13-.606.134-.133.298-.347.446-.52.149-.174.198-.298.298-.497.099-.198.05-.371-.025-.52-.075-.149-.669-1.612-.916-2.207-.242-.579-.487-.501-.67-.51-.173-.008-.371-.01-.57-.01-.198 0-.52.074-.792.372-.272.297-1.04 1.016-1.04 2.479 0 1.462 1.065 2.875 1.213 3.074.149.198 2.096 3.2 5.076 4.487.709.306 1.262.489 1.694.625.712.227 1.36.195 1.871.118.571-.085 1.758-.719 2.006-1.413.248-.694.248-1.289.173-1.413-.074-.124-.272-.198-.57-.347m-5.421-7.403h-.004c-1.052 0-2.082.27-2.986.77l-.214.127-2.216-.585.595 2.167-.139.224c-.537.86-.82 1.86-.82 2.885 0 3.181 2.586 5.767 5.768 5.767 1.542 0 2.987-.602 4.078-1.697 1.091-1.092 1.695-2.537 1.695-4.078 0-3.181-2.586-5.768-5.768-5.768m0-1.452c1.384 0 2.685.339 3.83 1.02l.274.163 2.84-.749-.813 2.846.196.315c.71 1.14 1.083 2.469 1.083 3.805 0 4.285-3.484 7.766-7.768 7.766-1.336 0-2.665-.372-3.804-1.084l-.315-.196-2.846.812.749-2.84-.163-.274c-.682-1.145-1.02-2.446-1.02-3.83 0-4.284 3.484-7.766 7.767-7.766"/>
  </symbol>
</svg>
